<svg width="41" height="41" viewBox="0 0 41 41" fill="none" xmlns="http://www.w3.org/2000/svg">
<mask id="mask0_249_395" style="mask-type:alpha" maskUnits="userSpaceOnUse" x="0" y="0" width="41" height="41">
<rect x="0.5" y="0.5" width="40" height="40" fill="#D9D9D9"/>
</mask>
<g mask="url(#mask0_249_395)">
<path d="M7.375 33.4163C6.51556 33.4163 5.77986 33.1104 5.16792 32.4984C4.55597 31.8865 4.25 31.1508 4.25 30.2913V10.708C4.25 9.84856 4.55597 9.11287 5.16792 8.50093C5.77986 7.88898 6.51556 7.58301 7.375 7.58301H17.375L20.5 10.708H33.625C34.4844 10.708 35.2201 11.014 35.8321 11.6259C36.444 12.2379 36.75 12.9736 36.75 13.833V30.2913C36.75 31.1508 36.444 31.8865 35.8321 32.4984C35.2201 33.1104 34.4844 33.4163 33.625 33.4163H7.375Z" fill="#8F8580"/>
</g>
</svg>
