<svg width="51" height="52" viewBox="0 0 51 52" fill="none" xmlns="http://www.w3.org/2000/svg">
<mask id="mask0_249_400" style="mask-type:alpha" maskUnits="userSpaceOnUse" x="0" y="0" width="51" height="52">
<rect y="0.5" width="51" height="51" fill="#D9D9D9"/>
</mask>
<g mask="url(#mask0_249_400)">
<path d="M12.7234 36.8109C14.5651 35.4474 16.5529 34.3849 18.6867 33.6234C20.8206 32.862 23.0917 32.4813 25.5 32.4813C27.9083 32.4813 30.1794 32.862 32.3133 33.6234C34.4471 34.3849 36.4349 35.4474 38.2766 36.8109C39.5693 35.3057 40.5521 33.6431 41.225 31.823C41.8979 30.0033 42.2344 28.0611 42.2344 25.9963C42.2344 21.3415 40.6096 17.3893 37.3602 14.1398C34.1107 10.8904 30.1573 9.26562 25.5 9.26562C20.8427 9.26562 16.8893 10.8904 13.6398 14.1398C10.3904 17.3893 8.76562 21.3415 8.76562 25.9963C8.76562 28.0611 9.10208 30.0033 9.775 31.823C10.4479 33.6431 11.4307 35.3057 12.7234 36.8109ZM25.5058 28.0187C23.4478 28.0187 21.7104 27.3124 20.2938 25.8996C18.8771 24.4868 18.1688 22.7514 18.1688 20.6933C18.1688 18.6353 18.8751 16.8979 20.2879 15.4813C21.7007 14.0646 23.4361 13.3562 25.4942 13.3562C27.5522 13.3562 29.2896 14.0626 30.7062 15.4754C32.1229 16.8882 32.8312 18.6236 32.8312 20.6817C32.8312 22.7397 32.1249 24.4771 30.7121 25.8937C29.2993 27.3104 27.5639 28.0187 25.5058 28.0187ZM25.5 46.7188C22.6344 46.7188 19.9415 46.174 17.4213 45.0846C14.9014 43.9949 12.7093 42.5162 10.8449 40.6487C8.9806 38.7808 7.50391 36.588 6.41484 34.0702C5.32578 31.5528 4.78125 28.8627 4.78125 26C4.78125 23.1344 5.32596 20.4415 6.41538 17.9213C7.50515 15.4014 8.98379 13.2093 10.8513 11.3449C12.7192 9.48061 14.912 8.00391 17.4298 6.91484C19.9472 5.82578 22.6373 5.28125 25.5 5.28125C28.3656 5.28125 31.0585 5.82596 33.5787 6.91538C36.0986 8.00515 38.2907 9.48379 40.1551 11.3513C42.0194 13.2192 43.4961 15.412 44.5852 17.9298C45.6742 20.4472 46.2188 23.1373 46.2188 26C46.2188 28.8656 45.674 31.5585 44.5846 34.0787C43.4949 36.5986 42.0162 38.7907 40.1487 40.6551C38.2808 42.5194 36.088 43.9961 33.5702 45.0852C31.0528 46.1742 28.3627 46.7188 25.5 46.7188Z" fill="#8F8580"/>
</g>
</svg>
