<svg width="40" height="41" viewBox="0 0 40 41" fill="none" xmlns="http://www.w3.org/2000/svg">
<mask id="mask0_249_390" style="mask-type:alpha" maskUnits="userSpaceOnUse" x="0" y="0" width="40" height="41">
<rect y="0.5" width="40" height="40" fill="#D9D9D9"/>
</mask>
<g mask="url(#mask0_249_390)">
<path d="M18.4362 33.4577H10.957C8.51259 33.4577 6.42231 32.6105 4.6862 30.916C2.95009 29.2216 2.08203 27.1521 2.08203 24.7077C2.08203 22.5966 2.72786 20.7181 4.01953 19.0723C5.3112 17.4264 6.98481 16.3882 9.04037 15.9577C9.69314 13.4577 11.0369 11.4299 13.0716 9.87435C15.1063 8.31879 17.4154 7.54102 19.9987 7.54102C23.1515 7.54102 25.8286 8.64518 28.0299 10.8535C30.2313 13.0618 31.332 15.7355 31.332 18.8743V19.0202C33.1931 19.1591 34.7556 19.9299 36.0195 21.3327C37.2834 22.7355 37.9154 24.3674 37.9154 26.2285C37.9154 28.2285 37.2105 29.9334 35.8008 31.3431C34.3911 32.7528 32.6793 33.4577 30.6654 33.4577H21.5612V21.6868L24.2695 24.3118L26.457 22.1243L19.9987 15.666L13.5612 22.1243L15.7487 24.3118L18.4362 21.6868V33.4577Z" fill="#AE9F98"/>
</g>
</svg>
